HIERARCHY
ROOT joint_Root
{
	OFFSET 0.0 0.0 0.0
	CHANNELS 6 Xposition Yposition Zposition Zrotation Xrotation Yrotation 
	JOINT Hips
	{
		OFFSET -0.726466 93.3139 -2.00062
		CHANNELS 6 Xposition Yposition Zposition Zrotation Xrotation Yrotation 
		JOINT Spine
		{
			OFFSET 15.7357 0.0 0.0
			CHANNELS 6 Xposition Yposition Zposition Zrotation Xrotation Yrotation 
			JOINT Chest
			{
				OFFSET 8.98455 -0.406207 0.0
				CHANNELS 6 Xposition Yposition Zposition Zrotation Xrotation Yrotation 
				JOINT Neck
				{
					OFFSET 16.3773 0.0 0.0
					CHANNELS 6 Xposition Yposition Zposition Zrotation Xrotation Yrotation 
					JOINT Head
					{
						OFFSET 6.45672 0.0 0.0
						CHANNELS 6 Xposition Yposition Zposition Zrotation Xrotation Yrotation 
						End Site
						{
							OFFSET 0.0 0.0 0.0
						}
					}
				}
				JOINT Shoulder_L
				{
					OFFSET 12.9942 -0.242716 4.98039
					CHANNELS 6 Xposition Yposition Zposition Zrotation Xrotation Yrotation 
					JOINT UpperArm_L
					{
						OFFSET 5.34809 0.0 0.0
						CHANNELS 6 Xposition Yposition Zposition Zrotation Xrotation Yrotation 
						JOINT LowerArm_L
						{
							OFFSET 24.3286 1.87007e-05 0.0
							CHANNELS 6 Xposition Yposition Zposition Zrotation Xrotation Yrotation 
							JOINT Hand_L
							{
								OFFSET 22.2916 0.0 0.0
								CHANNELS 6 Xposition Yposition Zposition Zrotation Xrotation Yrotation 
								End Site
								{
									OFFSET 0.0 0.0 0.0
								}
							}
						}
					}
				}
				JOINT Shoulder_R
				{
					OFFSET 12.9945 -0.242716 -4.98039
					CHANNELS 6 Xposition Yposition Zposition Zrotation Xrotation Yrotation 
					JOINT UpperArm_R
					{
						OFFSET -5.34813 0.0 0.0
						CHANNELS 6 Xposition Yposition Zposition Zrotation Xrotation Yrotation 
						JOINT LowerArm_R
						{
							OFFSET -24.3289 0.000322201 0.0
							CHANNELS 6 Xposition Yposition Zposition Zrotation Xrotation Yrotation 
							JOINT Hand_R
							{
								OFFSET -22.2915 -0.000108084 0.0
								CHANNELS 6 Xposition Yposition Zposition Zrotation Xrotation Yrotation 
								End Site
								{
									OFFSET 0.0 0.0 0.0
								}
							}
						}
					}
				}
			}
		}
		JOINT UpperLeg_L
		{
			OFFSET -2.19248 -6.46944 0.0
			CHANNELS 6 Xposition Yposition Zposition Zrotation Xrotation Yrotation 
			JOINT LowerLeg_L
			{
				OFFSET 39.0811 0.0 -1.23785e-05
				CHANNELS 6 Xposition Yposition Zposition Zrotation Xrotation Yrotation 
				JOINT Foot_L
				{
					OFFSET 40.9854 0.0 -1.26872e-05
					CHANNELS 6 Xposition Yposition Zposition Zrotation Xrotation Yrotation 
					JOINT Toes_L
					{
						OFFSET 11.7543 0.0 0.0
						CHANNELS 6 Xposition Yposition Zposition Zrotation Xrotation Yrotation 
						End Site
						{
							OFFSET 0.0 0.0 0.0
						}
					}
				}
			}
		}
		JOINT UpperLeg_R
		{
			OFFSET -2.19251 6.46944 0.0
			CHANNELS 6 Xposition Yposition Zposition Zrotation Xrotation Yrotation 
			JOINT LowerLeg_R
			{
				OFFSET -39.0811 -0.00228153 -0.0401928
				CHANNELS 6 Xposition Yposition Zposition Zrotation Xrotation Yrotation 
				JOINT Foot_R
				{
					OFFSET -40.9854 0.0 0.0
					CHANNELS 6 Xposition Yposition Zposition Zrotation Xrotation Yrotation 
					JOINT Toes_R
					{
						OFFSET -11.7543 0.0 0.0
						CHANNELS 6 Xposition Yposition Zposition Zrotation Xrotation Yrotation 
						End Site
						{
							OFFSET 0.0 0.0 0.0
						}
					}
				}
			}
		}
	}
}
MOTION
Frames:	7
Frame Time:	0.0333333
0.000000 0.000000 0.000000 0.000000 0.000000 -0.000000 2.249850 80.523900 -406.516000 93.132400 -2.320980 -13.746000 15.735700 0.000005 -0.000001 92.181100 81.308500 -94.524800 8.984550 -0.406207 -0.000000 9.621770 0.619670 -4.736140 16.377300 -0.000001 -0.000001 -2.750020 -2.332670 2.416520 6.456720 -0.000001 -0.000000 -1.779760 -2.240390 -0.551455 12.994200 -0.242716 4.980390 -90.796800 2.044890 -68.691600 5.348090 -0.000007 -0.000001 -73.787700 15.636500 -2.794620 24.328600 0.000019 0.000005 -1.607700 -0.331068 -78.389300 22.291600 -0.000001 0.000005 1.808130 5.659170 -15.967300 12.994500 -0.242716 -4.980390 87.577800 7.434610 -71.896800 -5.348130 -0.000001 -0.000004 -64.663800 28.496000 -3.151080 -24.328900 0.000322 -0.000009 4.200980 4.755570 -41.591200 -22.291500 -0.000108 -0.000004 9.492610 5.616340 -12.367900 -2.192480 -6.469440 -0.000000 166.197000 -6.591450 -30.357600 39.081100 -0.000007 -0.000012 0.165348 -0.101554 58.441200 40.985400 -0.000006 -0.000013 9.246430 -11.080300 -92.528200 11.754300 -0.000000 0.000003 -0.001139 -0.017369 -17.283100 -2.192510 6.469440 -0.000001 178.130000 11.817300 152.394000 -39.081100 -0.002282 -0.040193 -0.502524 -0.182146 109.793000 -40.985400 0.000008 0.000006 8.146540 -1.631290 -32.390500 -11.754300 -0.000006 -0.000006 -0.025949 -0.198259 -24.686400
0.000000 0.000000 0.000000 0.000000 0.000000 -0.000000 1.617350 79.399500 -399.397000 91.794700 2.202680 -13.800600 15.735700 0.000005 -0.000001 88.172300 81.388600 -89.245800 8.984550 -0.406207 -0.000000 9.443920 -0.561866 -2.098930 16.377300 -0.000001 -0.000001 -3.251480 -3.418080 2.301900 6.456720 -0.000001 -0.000000 -2.491370 -2.418570 -0.214228 12.994200 -0.242716 4.980390 -90.291400 0.861656 -71.401800 5.348090 -0.000007 -0.000001 -74.652600 20.509600 -19.599200 24.328600 0.000019 0.000005 2.555890 0.223539 -84.860700 22.291600 -0.000001 0.000005 0.999370 5.661960 -16.274400 12.994500 -0.242716 -4.980390 87.788000 6.325860 -70.678900 -5.348130 -0.000001 -0.000004 -66.156300 24.028400 8.836580 -24.328900 0.000322 -0.000009 6.034740 7.684240 -38.331800 -22.291500 -0.000108 -0.000004 8.866490 5.619740 -12.631400 -2.192480 -6.469440 -0.000000 170.213000 -6.832110 -23.569000 39.081100 -0.000007 -0.000012 0.171371 -0.109483 57.426000 40.985400 -0.000006 -0.000013 9.141140 -7.388270 -97.152100 11.754300 -0.000000 0.000003 -0.002710 -0.037283 -18.092900 -2.192510 6.469440 -0.000001 -177.745000 11.033000 138.229000 -39.081100 -0.002282 -0.040193 -0.771379 -0.466221 121.033000 -40.985400 0.000008 0.000006 11.080100 -6.024900 -33.675700 -11.754300 -0.000006 -0.000006 -0.027305 -0.204834 -24.958500
0.000000 0.000000 0.000000 0.000000 0.000000 -0.000000 0.526272 79.833700 -390.938000 88.292700 6.651270 -13.868000 15.735700 0.000005 -0.000001 78.175400 81.683400 -77.297400 8.984550 -0.406207 -0.000000 8.552060 -3.386120 2.007950 16.377300 -0.000001 -0.000001 -3.235110 -3.135510 1.861000 6.456720 -0.000001 -0.000000 -1.973380 -0.148676 -0.394596 12.994200 -0.242716 4.980390 -89.086500 -3.011080 -73.110200 5.348090 -0.000007 -0.000001 -75.090900 22.369800 -30.628800 24.328600 0.000019 0.000005 1.650330 -0.134556 -95.038100 22.291600 -0.000001 0.000005 1.502240 5.654760 -15.470300 12.994500 -0.242716 -4.980390 88.282100 4.546400 -69.273000 -5.348130 -0.000001 -0.000004 -66.177600 26.712600 18.995900 -24.328900 0.000322 -0.000009 5.886500 6.009210 -44.587100 -22.291500 -0.000108 -0.000004 6.555870 5.632860 -13.550500 -2.192480 -6.469440 -0.000000 177.749000 -6.914700 -14.557000 39.081100 -0.000007 -0.000012 0.106840 -0.086689 50.943300 40.985400 -0.000006 -0.000013 8.228040 -2.329360 -96.309400 11.754300 -0.000000 0.000003 -0.756448 -0.893922 -21.209800 -2.192510 6.469440 -0.000001 -171.995000 9.288460 128.517000 -39.081100 -0.002282 -0.040193 -0.760068 -0.485662 122.457000 -40.985400 0.000008 0.000006 15.359300 -11.241300 -40.035200 -11.754300 -0.000006 -0.000006 -0.026323 -0.200089 -24.762100
0.000000 0.000000 0.000000 0.000000 0.000000 -0.000000 -0.543542 82.099600 -381.049000 84.493700 9.320750 -13.400700 15.735700 0.000005 -0.000001 67.551200 81.600000 -64.724300 8.984550 -0.406207 -0.000000 7.962560 -6.383620 6.097650 16.377300 -0.000001 -0.000001 -3.066980 -2.256520 1.417560 6.456720 -0.000001 -0.000000 -1.287590 2.973610 -1.848500 12.994200 -0.242716 4.980390 -88.385200 -5.543490 -73.730000 5.348090 -0.000007 -0.000001 -73.339700 21.880300 -36.317500 24.328600 0.000019 0.000005 -6.107740 1.623610 -104.799000 22.291600 -0.000001 0.000005 3.746730 5.661030 -16.176500 12.994500 -0.242716 -4.980390 88.964400 2.616260 -68.390600 -5.348130 -0.000001 -0.000004 -66.084000 29.853200 26.247000 -24.328900 0.000322 -0.000009 5.443330 4.191800 -52.512300 -22.291500 -0.000108 -0.000004 4.824270 5.631550 -13.447900 -2.192480 -6.469440 -0.000000 -174.730000 -5.992230 -3.172370 39.081100 -0.000007 -0.000012 0.032456 -0.040509 38.700700 40.985400 -0.000006 -0.000013 5.932960 2.099010 -85.570000 11.754300 -0.000000 0.000003 -0.059148 -0.329008 -30.161100 -2.192510 6.469440 -0.000001 -168.653000 5.379870 124.222000 -39.081100 -0.002282 -0.040193 -0.395892 -0.186641 115.046000 -40.985400 0.000008 0.000006 14.123800 -13.736100 -49.185200 -11.754300 -0.000006 -0.000006 -0.021256 -0.174148 -23.690500
0.000000 0.000000 0.000000 0.000000 0.000000 -0.000000 -1.337660 85.316800 -370.966000 81.266500 10.450400 -15.248000 15.735700 0.000005 -0.000001 57.823700 82.191700 -53.381900 8.984550 -0.406207 -0.000000 5.842060 -8.370300 9.314260 16.377300 -0.000001 -0.000001 -2.791370 -1.544810 1.487980 6.456720 -0.000001 -0.000000 -0.386392 5.334020 -3.284480 12.994200 -0.242716 4.980390 -87.850000 -7.434520 -73.820500 5.348090 -0.000007 -0.000001 -72.721700 20.718900 -37.133700 24.328600 0.000019 0.000005 -6.138640 2.614550 -112.989000 22.291600 -0.000001 0.000005 2.294620 5.647630 -14.732800 12.994500 -0.242716 -4.980390 89.879900 0.293316 -67.724100 -5.348130 -0.000001 -0.000004 -67.266900 30.604000 31.384700 -24.328900 0.000322 -0.000009 5.844360 3.498440 -59.211400 -22.291500 -0.000108 -0.000004 3.514690 5.626150 -13.047800 -2.192480 -6.469440 -0.000000 -169.425000 -5.641400 2.964490 39.081100 -0.000007 -0.000012 0.007779 -0.014724 27.846500 40.985400 -0.000006 -0.000013 2.653950 4.245190 -63.030700 11.754300 -0.000000 0.000003 -0.254831 -0.729266 -48.300100 -2.192510 6.469440 -0.000001 -166.890000 1.076630 120.483000 -39.081100 -0.002282 -0.040193 -0.079315 -0.017015 101.576000 -40.985400 0.000008 0.000006 12.986300 -15.350000 -54.982400 -11.754300 -0.000006 -0.000006 -0.021181 -0.173745 -23.673900
0.000000 0.000000 0.000000 0.000000 0.000000 -0.000000 -1.819650 88.219600 -361.007000 81.420300 8.853110 -15.419300 15.735700 0.000005 -0.000001 53.908500 82.188800 -49.339000 8.984550 -0.406207 -0.000000 5.301290 -9.281760 9.575630 16.377300 -0.000001 -0.000001 -2.887540 -0.756390 2.292940 6.456720 -0.000001 -0.000000 0.003604 7.128750 -4.431570 12.994200 -0.242716 4.980390 -87.532300 -8.538030 -73.813200 5.348090 -0.000007 -0.000001 -72.154000 20.605000 -35.598700 24.328600 0.000019 0.000005 -6.025270 3.253920 -118.268000 22.291600 -0.000001 0.000005 1.319860 5.629620 -13.310400 12.994500 -0.242716 -4.980390 90.644300 -1.586700 -67.892000 -5.348130 -0.000001 -0.000004 -68.932600 29.939500 34.246700 -24.328900 0.000322 -0.000009 4.673450 2.255600 -64.307900 -22.291500 -0.000108 -0.000004 2.562090 5.619160 -12.558900 -2.192480 -6.469440 -0.000000 -165.815000 -12.980800 8.663470 39.081100 -0.000007 -0.000012 0.028901 -0.079442 19.991300 40.985400 -0.000006 -0.000013 -4.124290 9.721720 -36.913400 11.754300 -0.000000 0.000003 -0.163160 -0.580093 -41.196600 -2.192510 6.469440 -0.000001 -168.858000 -1.819050 121.357000 -39.081100 -0.002282 -0.040193 0.087267 -0.007809 84.741700 -40.985400 0.000008 0.000006 12.485600 -16.482100 -59.018100 -11.754300 -0.000006 -0.000006 -0.020778 -0.171560 -23.583900
0.000000 0.000000 0.000000 0.000000 0.000000 -0.000000 -1.905220 89.962900 -351.098000 82.768900 6.788210 -14.393800 15.735700 0.000005 -0.000001 52.719100 81.809100 -48.638200 8.984550 -0.406207 -0.000000 5.706450 -9.973090 8.667530 16.377300 -0.000001 -0.000001 -3.219620 -0.029152 3.114370 6.456720 -0.000001 -0.000000 0.012166 8.714990 -4.781240 12.994200 -0.242716 4.980390 -87.418700 -9.068050 -74.036900 5.348090 -0.000007 -0.000001 -70.906200 21.473300 -32.137100 24.328600 0.000019 0.000005 -6.731130 3.955370 -120.304000 22.291600 -0.000001 0.000005 2.255380 5.631450 -13.444400 12.994500 -0.242716 -4.980390 91.043200 -2.619960 -68.279900 -5.348130 -0.000001 -0.000004 -70.232600 29.425400 33.902400 -24.328900 0.000322 -0.000009 3.364480 1.408530 -67.321900 -22.291500 -0.000108 -0.000004 1.317750 5.615520 -12.316800 -2.192480 -6.469440 -0.000000 -165.758000 -12.971100 13.726300 39.081100 -0.000007 -0.000012 0.052411 -0.157764 18.377200 40.985400 -0.000006 -0.000013 -6.922240 4.732280 -27.167300 11.754300 -0.000000 0.000003 -0.009457 -0.099543 -20.631900 -2.192510 6.469440 -0.000001 -170.818000 -1.078000 126.005000 -39.081100 -0.002282 -0.040193 0.113449 -0.049354 65.892400 -40.985400 0.000008 0.000006 10.302900 -11.672900 -63.383800 -11.754300 -0.000006 -0.000006 -0.022071 -0.178501 -23.870100
